<?xml version="1.0" encoding="utf-8"?>
<!-- Generator: Adobe Illustrator 15.0.2, SVG Export Plug-In . SVG Version: 6.00 Build 0)  -->
<!DOCTYPE svg PUBLIC "-//W3C//DTD SVG 1.1//EN" "http://www.w3.org/Graphics/SVG/1.1/DTD/svg11.dtd">
<svg version="1.1" id="Layer_1" xmlns="http://www.w3.org/2000/svg" xmlns:xlink="http://www.w3.org/1999/xlink" x="0px" y="0px"
	 width="51px" height="25px" viewBox="0 0 51 25" enable-background="new 0 0 51 25" xml:space="preserve">
<g>
	<path fill-rule="evenodd" clip-rule="evenodd" fill="#A6A8AB" d="M50.551,14.32c-2.502,0.439-5.007,0.879-7.507,1.319
		c-0.424,0.487-0.848,0.975-1.27,1.462c-8.045,0-16.092,0-24.142,0c-0.307-0.551-0.615-1.106-0.924-1.658
		c-0.436-0.092-0.873-0.18-1.309-0.271c-0.021-0.744-0.041-1.489-0.058-2.232c-1.12-0.021-2.241-0.042-3.358-0.062
		c-0.01-1.1-0.02-2.201-0.031-3.301c-0.865,0.465-1.732,0.927-2.599,1.392c-0.023,0.478-0.048,0.954-0.071,1.432
		c-1.094,0.104-2.183,0.207-3.276,0.312c-0.247,0.721-0.493,1.438-0.741,2.159c-0.829-0.01-1.658-0.021-2.488-0.03
		c-0.043,0.504-0.091,1.008-0.139,1.513c-0.73-0.073-1.459-0.146-2.189-0.22c0.453,1.127,0.589,1.222,1.385,2.14
		c15.248,0,30.496,0,45.745,0C48.717,16.956,49.744,15.64,50.551,14.32"/>
	<path fill-rule="evenodd" clip-rule="evenodd" fill="#A6A8AB" d="M47.48,18.612H2.227l2.314,2.081
		c2.576,0.104,5.332-0.207,8.412-0.556c4.447-0.504,8.647,1.32,12.727,0.255c4.081-1.063,7.45-0.387,12.243,0.061
		c2.863,0.268,5.662-0.125,8.058-0.269L47.48,18.612z"/>
	<path fill="#231F20" d="M1.268,19.976c3.48,0.785,7.221,0.362,11.634-0.136l0.018-0.003c2.037-0.229,4.015,0.017,5.946,0.26
		c2.306,0.292,4.557,0.572,6.739,0.005c3.425-0.895,6.337-0.583,9.973-0.19c0.771,0.081,1.577,0.169,2.373,0.244
		c2.124,0.195,4.24,0.023,6.17-0.137c2.399-0.195,4.525-0.372,6.143,0.214l-0.203,0.565c-1.489-0.538-3.557-0.365-5.89-0.176h-0.002
		c-1.951,0.163-4.085,0.339-6.272,0.132c-0.87-0.08-1.642-0.163-2.383-0.243c-3.575-0.384-6.439-0.69-9.756,0.175
		c-2.294,0.597-4.6,0.309-6.962,0.011c-1.898-0.237-3.835-0.48-5.809-0.26l-0.02,0.003c-4.465,0.505-8.252,0.934-11.834,0.125
		L1.268,19.976z"/>
	<rect x="18.172" y="14.075" fill-rule="evenodd" clip-rule="evenodd" fill="#A6A8AB" width="2.976" height="2.296"/>
	<rect x="21.584" y="14.075" fill-rule="evenodd" clip-rule="evenodd" fill="#A6A8AB" width="2.975" height="2.296"/>
	<rect x="24.998" y="14.075" fill-rule="evenodd" clip-rule="evenodd" fill="#A6A8AB" width="2.977" height="2.296"/>
	<rect x="18.172" y="11.446" fill-rule="evenodd" clip-rule="evenodd" fill="#A6A8AB" width="2.976" height="2.291"/>
	<rect x="21.584" y="11.446" fill-rule="evenodd" clip-rule="evenodd" fill="#A6A8AB" width="2.975" height="2.291"/>
	<rect x="24.998" y="11.446" fill-rule="evenodd" clip-rule="evenodd" fill="#A6A8AB" width="2.977" height="2.291"/>
	<rect x="28.388" y="14.075" fill-rule="evenodd" clip-rule="evenodd" fill="#A6A8AB" width="2.975" height="2.296"/>
	<rect x="28.388" y="11.446" fill-rule="evenodd" clip-rule="evenodd" fill="#A6A8AB" width="2.975" height="2.291"/>
	<path fill-rule="evenodd" clip-rule="evenodd" fill="#231F20" d="M41.804,7.407h0.407v14.809h-0.407V7.407z M39.375,3.38h0.405
		v18.836h-0.405V3.38z"/>
	<rect x="39.445" y="21.557" fill-rule="evenodd" clip-rule="evenodd" fill="#231F20" width="5.224" height="0.348"/>
	<polygon fill-rule="evenodd" clip-rule="evenodd" fill="#231F20" points="44.669,21.395 44.669,22.132 44.262,22.132 
		44.262,21.563 42.035,19.137 41.929,18.646 39.397,21.395 39.397,22.132 39.805,22.132 39.805,21.563 42.035,19.137 42.136,18.646 
			"/>
	<rect x="39.445" y="18.347" fill-rule="evenodd" clip-rule="evenodd" fill="#231F20" width="2.546" height="0.349"/>
	<polygon fill-rule="evenodd" clip-rule="evenodd" fill="#231F20" points="42.035,16.15 41.929,15.66 39.397,18.404 39.805,18.577 	
		"/>
	<path fill-rule="evenodd" clip-rule="evenodd" fill="#231F20" d="M35.531,8.067h-3.34V7.171h3.34V8.067z M35.193,10.214h2.256
		l-1.128-0.637L35.193,10.214z M35.797,7.357h1.119v0.71h-0.474v1.304l1.366,0.769l0.035,0.074h-2.975h0.011l-0.044-0.074
		l1.366-0.769V8.067h-0.405V7.357z M44.584,8.067h-7.402V7.171h6.986V6.853H32.191V6.308h12.393V8.067z"/>
	<polygon fill-rule="evenodd" clip-rule="evenodd" fill="#231F20" points="39.375,3.38 39.381,3.38 39.78,3.38 39.786,3.38 
		39.784,3.386 42.277,6.575 42.117,6.542 39.601,3.729 39.573,3.778 32.395,6.321 32.229,6.354 32.191,6.312 39.379,3.38 	"/>
	<polygon fill-rule="evenodd" clip-rule="evenodd" fill="#231F20" points="39.32,22.862 39.817,22.862 39.648,22.541 39.648,22.064 
		39.494,22.064 39.494,22.541 	"/>
	<polygon fill-rule="evenodd" clip-rule="evenodd" fill="#231F20" points="41.758,22.862 42.259,22.862 42.086,22.541 
		42.086,22.064 41.929,22.064 41.929,22.541 	"/>
	<polygon fill-rule="evenodd" clip-rule="evenodd" fill="#231F20" points="44.212,22.862 44.713,22.862 44.54,22.541 44.54,22.064 
		44.383,22.064 44.383,22.541 	"/>
	<rect x="39.445" y="15.609" fill-rule="evenodd" clip-rule="evenodd" fill="#231F20" width="2.546" height="0.348"/>
	<polygon fill-rule="evenodd" clip-rule="evenodd" fill="#231F20" points="42.035,13.413 41.929,12.922 39.397,15.667 
		39.805,15.836 	"/>
	<rect x="39.445" y="12.997" fill-rule="evenodd" clip-rule="evenodd" fill="#231F20" width="2.546" height="0.348"/>
	<polygon fill-rule="evenodd" clip-rule="evenodd" fill="#231F20" points="42.035,10.8 41.929,10.306 39.397,13.054 39.805,13.224 	
		"/>
	<rect x="39.445" y="10.255" fill-rule="evenodd" clip-rule="evenodd" fill="#231F20" width="2.546" height="0.352"/>
	<polygon fill-rule="evenodd" clip-rule="evenodd" fill="#231F20" points="42.035,8.058 41.929,7.566 39.397,10.315 39.805,10.485 	
		"/>
	<polygon fill-rule="evenodd" clip-rule="evenodd" fill="#EC1C24" points="37.844,10.214 37.844,11.53 37.844,11.629 37.844,11.858 
		37.604,11.858 37.604,11.629 36.446,11.629 36.446,11.858 36.267,11.858 36.267,11.629 35.109,11.629 35.109,11.858 34.869,11.858 
		34.869,11.629 34.869,11.53 34.869,10.214 34.88,10.214 	"/>
</g>
</svg>
