<?xml version="1.0" encoding="utf-8"?>
<!-- Generator: Adobe Illustrator 15.0.2, SVG Export Plug-In . SVG Version: 6.00 Build 0)  -->
<!DOCTYPE svg PUBLIC "-//W3C//DTD SVG 1.1//EN" "http://www.w3.org/Graphics/SVG/1.1/DTD/svg11.dtd">
<svg version="1.1" id="Layer_1" xmlns="http://www.w3.org/2000/svg" xmlns:xlink="http://www.w3.org/1999/xlink" x="0px" y="0px"
	 width="51px" height="25px" viewBox="0 0 51 25" enable-background="new 0 0 51 25" xml:space="preserve">
<g>
	<path fill-rule="evenodd" clip-rule="evenodd" fill="#A6A8AB" d="M50.584,11.513c-2.508,0.44-5.013,0.881-7.521,1.321
		c-0.423,0.488-0.843,0.977-1.268,1.465c-8.061,0-16.116,0-24.173,0c-0.309-0.553-0.615-1.108-0.928-1.66
		c-0.438-0.093-0.875-0.181-1.309-0.272c-0.02-0.745-0.041-1.491-0.061-2.235c-1.122-0.021-2.241-0.042-3.363-0.062
		c-0.01-1.101-0.02-2.203-0.03-3.305c-0.868,0.465-1.731,0.928-2.6,1.394C9.311,8.635,9.286,9.113,9.259,9.591
		C8.167,9.695,7.072,9.798,5.982,9.902c-0.248,0.723-0.496,1.441-0.746,2.162c-0.827-0.01-1.658-0.021-2.488-0.029
		c-0.048,0.504-0.092,1.009-0.139,1.514c-0.732-0.073-1.461-0.146-2.193-0.22c0.455,1.129,0.59,1.224,1.387,2.143
		c15.269,0,30.534,0,45.803,0C48.748,14.152,49.774,12.834,50.584,11.513"/>
	<path fill-rule="evenodd" clip-rule="evenodd" fill="#A6A8AB" d="M47.508,15.811H2.192l2.317,2.084
		c2.584,0.104,5.342-0.207,8.427-0.556c4.454-0.506,8.659,1.321,12.743,0.255c4.089-1.064,7.46-0.387,12.26,0.061
		c2.863,0.268,5.67-0.126,8.068-0.269L47.508,15.811z"/>
	<path fill="#231F20" d="M1.233,17.177c3.483,0.786,7.231,0.362,11.649-0.137l0.02-0.003c2.041-0.229,4.016,0.017,5.955,0.261
		c2.308,0.292,4.559,0.573,6.748,0.004c3.429-0.896,6.345-0.583,9.985-0.19c0.771,0.082,1.579,0.17,2.372,0.245
		c2.131,0.195,4.247,0.022,6.182-0.138c2.403-0.195,4.532-0.372,6.15,0.215l-0.202,0.565c-1.493-0.538-3.562-0.366-5.9-0.176l0,0
		c-1.953,0.163-4.091,0.339-6.28,0.132c-0.872-0.08-1.644-0.163-2.386-0.243c-3.579-0.384-6.448-0.691-9.772,0.176
		c-2.298,0.597-4.605,0.309-6.971,0.01c-1.898-0.237-3.837-0.48-5.812-0.26l-0.021,0.003c-4.469,0.505-8.262,0.935-11.849,0.125
		L1.233,17.177z"/>
	<rect x="18.158" y="11.268" fill-rule="evenodd" clip-rule="evenodd" fill="#EC1C24" width="2.979" height="2.299"/>
	<rect x="21.579" y="11.268" fill-rule="evenodd" clip-rule="evenodd" fill="#EC1C24" width="2.979" height="2.299"/>
	<rect x="24.996" y="11.268" fill-rule="evenodd" clip-rule="evenodd" fill="#EC1C24" width="2.978" height="2.299"/>
	<rect x="18.158" y="8.635" fill-rule="evenodd" clip-rule="evenodd" fill="#EC1C24" width="2.979" height="2.295"/>
	<rect x="21.579" y="8.635" fill-rule="evenodd" clip-rule="evenodd" fill="#EC1C24" width="2.979" height="2.295"/>
	<rect x="24.996" y="8.635" fill-rule="evenodd" clip-rule="evenodd" fill="#EC1C24" width="2.978" height="2.295"/>
	<rect x="28.391" y="11.268" fill-rule="evenodd" clip-rule="evenodd" fill="#EC1C24" width="2.976" height="2.299"/>
	<rect x="31.808" y="11.268" fill-rule="evenodd" clip-rule="evenodd" fill="#EC1C24" width="2.98" height="2.299"/>
	<rect x="35.227" y="11.268" fill-rule="evenodd" clip-rule="evenodd" fill="#EC1C24" width="2.98" height="2.299"/>
	<rect x="28.391" y="8.635" fill-rule="evenodd" clip-rule="evenodd" fill="#EC1C24" width="2.976" height="2.295"/>
	<rect x="31.808" y="8.635" fill-rule="evenodd" clip-rule="evenodd" fill="#EC1C24" width="2.98" height="2.295"/>
	<rect x="35.227" y="8.635" fill-rule="evenodd" clip-rule="evenodd" fill="#EC1C24" width="2.98" height="2.295"/>
</g>
</svg>
