<?xml version="1.0" encoding="utf-8"?>
<!-- Generator: Adobe Illustrator 15.0.2, SVG Export Plug-In . SVG Version: 6.00 Build 0)  -->
<!DOCTYPE svg PUBLIC "-//W3C//DTD SVG 1.1//EN" "http://www.w3.org/Graphics/SVG/1.1/DTD/svg11.dtd">
<svg version="1.1" id="Layer_1" xmlns="http://www.w3.org/2000/svg" xmlns:xlink="http://www.w3.org/1999/xlink" x="0px" y="0px"
	 width="51px" height="25px" viewBox="0 0 51 25" enable-background="new 0 0 51 25" xml:space="preserve">
<g>
	<polygon fill-rule="evenodd" clip-rule="evenodd" fill="#A6A8AB" points="46.299,20.363 20.004,24.408 20.089,0.109 46.299,4.784 	
		"/>
	<polygon fill-rule="evenodd" clip-rule="evenodd" fill="#EC1C24" points="45.863,18.676 20.69,22.012 20.791,1.018 46.064,5.233 	
		"/>
	<g>
		<defs>
			<polygon id="SVGID_1_" points="45.863,18.676 20.69,22.012 20.791,1.018 46.064,5.233 			"/>
		</defs>
		<clipPath id="SVGID_2_">
			<use xlink:href="#SVGID_1_"  overflow="visible"/>
		</clipPath>
		
			<rect x="33.279" y="0.303" clip-path="url(#SVGID_2_)" fill-rule="evenodd" clip-rule="evenodd" fill="#EC1C24" width="17.82" height="25.525"/>
		
			<rect x="33.904" y="-0.639" clip-path="url(#SVGID_2_)" fill-rule="evenodd" clip-rule="evenodd" fill="#F0583E" width="0.316" height="23.459"/>
		
			<rect x="33.59" y="-0.639" clip-path="url(#SVGID_2_)" fill-rule="evenodd" clip-rule="evenodd" fill="#C95E45" width="0.314" height="23.459"/>
		
			<rect x="35.242" y="-0.639" clip-path="url(#SVGID_2_)" fill-rule="evenodd" clip-rule="evenodd" fill="#F0583E" width="0.314" height="23.459"/>
		
			<rect x="34.926" y="-0.639" clip-path="url(#SVGID_2_)" fill-rule="evenodd" clip-rule="evenodd" fill="#C95E45" width="0.316" height="23.459"/>
		
			<rect x="36.578" y="-0.639" clip-path="url(#SVGID_2_)" fill-rule="evenodd" clip-rule="evenodd" fill="#F0583E" width="0.314" height="23.459"/>
		
			<rect x="36.262" y="-0.639" clip-path="url(#SVGID_2_)" fill-rule="evenodd" clip-rule="evenodd" fill="#C95E45" width="0.316" height="23.459"/>
		
			<rect x="37.914" y="-0.639" clip-path="url(#SVGID_2_)" fill-rule="evenodd" clip-rule="evenodd" fill="#F0583E" width="0.311" height="23.459"/>
		
			<rect x="37.6" y="-0.639" clip-path="url(#SVGID_2_)" fill-rule="evenodd" clip-rule="evenodd" fill="#C95E45" width="0.314" height="23.459"/>
		
			<rect x="39.246" y="-0.639" clip-path="url(#SVGID_2_)" fill-rule="evenodd" clip-rule="evenodd" fill="#F0583E" width="0.314" height="23.459"/>
		
			<rect x="38.936" y="-0.639" clip-path="url(#SVGID_2_)" fill-rule="evenodd" clip-rule="evenodd" fill="#C95E45" width="0.311" height="23.459"/>
		
			<rect x="40.584" y="-0.639" clip-path="url(#SVGID_2_)" fill-rule="evenodd" clip-rule="evenodd" fill="#F0583E" width="0.314" height="23.459"/>
		
			<rect x="40.268" y="-0.639" clip-path="url(#SVGID_2_)" fill-rule="evenodd" clip-rule="evenodd" fill="#C95E45" width="0.316" height="23.459"/>
		
			<rect x="41.92" y="-0.639" clip-path="url(#SVGID_2_)" fill-rule="evenodd" clip-rule="evenodd" fill="#F0583E" width="0.314" height="23.459"/>
		
			<rect x="41.604" y="-0.639" clip-path="url(#SVGID_2_)" fill-rule="evenodd" clip-rule="evenodd" fill="#C95E45" width="0.316" height="23.459"/>
		
			<rect x="43.256" y="-0.639" clip-path="url(#SVGID_2_)" fill-rule="evenodd" clip-rule="evenodd" fill="#F0583E" width="0.316" height="23.459"/>
		
			<rect x="42.941" y="-0.639" clip-path="url(#SVGID_2_)" fill-rule="evenodd" clip-rule="evenodd" fill="#C95E45" width="0.314" height="23.459"/>
		
			<rect x="44.594" y="-0.639" clip-path="url(#SVGID_2_)" fill-rule="evenodd" clip-rule="evenodd" fill="#F0583E" width="0.314" height="23.459"/>
		
			<rect x="44.277" y="-0.639" clip-path="url(#SVGID_2_)" fill-rule="evenodd" clip-rule="evenodd" fill="#C95E45" width="0.316" height="23.459"/>
		
			<rect x="21.732" y="-0.639" clip-path="url(#SVGID_2_)" fill-rule="evenodd" clip-rule="evenodd" fill="#F0583E" width="0.315" height="23.459"/>
		
			<rect x="21.417" y="-0.639" clip-path="url(#SVGID_2_)" fill-rule="evenodd" clip-rule="evenodd" fill="#C95E45" width="0.315" height="23.459"/>
		
			<rect x="23.069" y="-0.639" clip-path="url(#SVGID_2_)" fill-rule="evenodd" clip-rule="evenodd" fill="#F0583E" width="0.315" height="23.459"/>
		
			<rect x="22.753" y="-0.639" clip-path="url(#SVGID_2_)" fill-rule="evenodd" clip-rule="evenodd" fill="#C95E45" width="0.315" height="23.459"/>
		
			<rect x="24.405" y="-0.639" clip-path="url(#SVGID_2_)" fill-rule="evenodd" clip-rule="evenodd" fill="#F0583E" width="0.312" height="23.459"/>
		
			<rect x="24.09" y="-0.639" clip-path="url(#SVGID_2_)" fill-rule="evenodd" clip-rule="evenodd" fill="#C95E45" width="0.314" height="23.459"/>
		
			<rect x="25.742" y="-0.639" clip-path="url(#SVGID_2_)" fill-rule="evenodd" clip-rule="evenodd" fill="#F0583E" width="0.311" height="23.459"/>
		
			<rect x="25.426" y="-0.639" clip-path="url(#SVGID_2_)" fill-rule="evenodd" clip-rule="evenodd" fill="#C95E45" width="0.315" height="23.459"/>
		
			<rect x="27.074" y="-0.639" clip-path="url(#SVGID_2_)" fill-rule="evenodd" clip-rule="evenodd" fill="#F0583E" width="0.316" height="23.459"/>
		
			<rect x="26.764" y="-0.639" clip-path="url(#SVGID_2_)" fill-rule="evenodd" clip-rule="evenodd" fill="#C95E45" width="0.311" height="23.459"/>
		
			<rect x="28.41" y="-0.639" clip-path="url(#SVGID_2_)" fill-rule="evenodd" clip-rule="evenodd" fill="#F0583E" width="0.316" height="23.459"/>
		
			<rect x="28.102" y="-0.639" clip-path="url(#SVGID_2_)" fill-rule="evenodd" clip-rule="evenodd" fill="#C95E45" width="0.309" height="23.459"/>
		
			<rect x="29.748" y="-0.639" clip-path="url(#SVGID_2_)" fill-rule="evenodd" clip-rule="evenodd" fill="#F0583E" width="0.314" height="23.459"/>
		
			<rect x="29.432" y="-0.639" clip-path="url(#SVGID_2_)" fill-rule="evenodd" clip-rule="evenodd" fill="#C95E45" width="0.316" height="23.459"/>
		
			<rect x="31.084" y="-0.639" clip-path="url(#SVGID_2_)" fill-rule="evenodd" clip-rule="evenodd" fill="#F0583E" width="0.316" height="23.459"/>
		
			<rect x="30.768" y="-0.639" clip-path="url(#SVGID_2_)" fill-rule="evenodd" clip-rule="evenodd" fill="#C95E45" width="0.316" height="23.459"/>
		
			<rect x="32.42" y="-0.639" clip-path="url(#SVGID_2_)" fill-rule="evenodd" clip-rule="evenodd" fill="#F0583E" width="0.316" height="23.459"/>
		
			<rect x="32.105" y="-0.639" clip-path="url(#SVGID_2_)" fill-rule="evenodd" clip-rule="evenodd" fill="#C95E45" width="0.314" height="23.459"/>
	</g>
	<polygon fill-rule="evenodd" clip-rule="evenodd" fill="#A6A8AB" points="4.702,22.621 20.004,24.408 20.089,0.109 4.702,2.022 	
		"/>
	<polygon fill-rule="evenodd" clip-rule="evenodd" fill="#EC1C24" points="5.209,20.592 19.329,21.869 19.412,1.464 5.209,3.376 	
		"/>
	<g>
		<defs>
			<polygon id="SVGID_3_" points="5.209,20.592 19.329,21.869 19.412,1.464 5.209,3.376 			"/>
		</defs>
		<clipPath id="SVGID_4_">
			<use xlink:href="#SVGID_3_"  overflow="visible"/>
		</clipPath>
		
			<rect x="12.313" y="-0.639" clip-path="url(#SVGID_4_)" fill-rule="evenodd" clip-rule="evenodd" fill="#A6A8AB" width="0.311" height="23.459"/>
		
			<rect x="11.999" y="-0.639" clip-path="url(#SVGID_4_)" fill-rule="evenodd" clip-rule="evenodd" fill="#A6A8AB" width="0.314" height="23.459"/>
	</g>
</g>
</svg>
