<?xml version="1.0" encoding="utf-8"?>
<!-- Generator: Adobe Illustrator 15.0.2, SVG Export Plug-In . SVG Version: 6.00 Build 0)  -->
<!DOCTYPE svg PUBLIC "-//W3C//DTD SVG 1.1//EN" "http://www.w3.org/Graphics/SVG/1.1/DTD/svg11.dtd">
<svg version="1.1" id="Layer_1" xmlns="http://www.w3.org/2000/svg" xmlns:xlink="http://www.w3.org/1999/xlink" x="0px" y="0px"
	 width="51px" height="25px" viewBox="0 0 51 25" enable-background="new 0 0 51 25" xml:space="preserve">
<g>
	<polygon fill-rule="evenodd" clip-rule="evenodd" fill="#A6A8AB" points="46.746,20.383 21.181,24.312 21.264,0.688 46.746,5.232 	
		"/>
	<polygon fill-rule="evenodd" clip-rule="evenodd" fill="#BCBEC0" points="46.324,18.738 21.846,21.984 21.941,1.57 46.52,5.67 	"/>
	<g>
		<defs>
			<polygon id="SVGID_1_" points="46.324,18.738 21.846,21.984 21.941,1.57 46.52,5.67 			"/>
		</defs>
		<clipPath id="SVGID_2_">
			<use xlink:href="#SVGID_1_"  overflow="visible"/>
		</clipPath>
		
			<rect x="34.088" y="0.875" clip-path="url(#SVGID_2_)" fill-rule="evenodd" clip-rule="evenodd" fill="#EC1C24" width="17.326" height="24.82"/>
		
			<rect x="23.008" y="-0.041" clip-path="url(#SVGID_2_)" fill-rule="evenodd" clip-rule="evenodd" fill="#CDCED0" width="0.307" height="22.809"/>
		
			<rect x="22.701" y="-0.041" clip-path="url(#SVGID_2_)" fill-rule="evenodd" clip-rule="evenodd" fill="#B6B8BA" width="0.307" height="22.809"/>
		
			<rect x="24.307" y="-0.041" clip-path="url(#SVGID_2_)" fill-rule="evenodd" clip-rule="evenodd" fill="#CDCED0" width="0.303" height="22.809"/>
		
			<rect x="24" y="-0.041" clip-path="url(#SVGID_2_)" fill-rule="evenodd" clip-rule="evenodd" fill="#B6B8BA" width="0.307" height="22.809"/>
		
			<rect x="25.602" y="-0.041" clip-path="url(#SVGID_2_)" fill-rule="evenodd" clip-rule="evenodd" fill="#CDCED0" width="0.309" height="22.809"/>
		
			<rect x="25.296" y="-0.041" clip-path="url(#SVGID_2_)" fill-rule="evenodd" clip-rule="evenodd" fill="#B6B8BA" width="0.306" height="22.809"/>
		
			<rect x="26.904" y="-0.041" clip-path="url(#SVGID_2_)" fill-rule="evenodd" clip-rule="evenodd" fill="#CDCED0" width="0.305" height="22.809"/>
		
			<rect x="26.596" y="-0.041" clip-path="url(#SVGID_2_)" fill-rule="evenodd" clip-rule="evenodd" fill="#B6B8BA" width="0.309" height="22.809"/>
		
			<rect x="28.201" y="-0.041" clip-path="url(#SVGID_2_)" fill-rule="evenodd" clip-rule="evenodd" fill="#CDCED0" width="0.309" height="22.809"/>
		
			<rect x="27.895" y="-0.041" clip-path="url(#SVGID_2_)" fill-rule="evenodd" clip-rule="evenodd" fill="#B6B8BA" width="0.307" height="22.809"/>
		
			<rect x="29.5" y="-0.041" clip-path="url(#SVGID_2_)" fill-rule="evenodd" clip-rule="evenodd" fill="#CDCED0" width="0.309" height="22.809"/>
		
			<rect x="29.195" y="-0.041" clip-path="url(#SVGID_2_)" fill-rule="evenodd" clip-rule="evenodd" fill="#B6B8BA" width="0.305" height="22.809"/>
		
			<rect x="30.803" y="-0.041" clip-path="url(#SVGID_2_)" fill-rule="evenodd" clip-rule="evenodd" fill="#CDCED0" width="0.301" height="22.809"/>
		
			<rect x="30.494" y="-0.041" clip-path="url(#SVGID_2_)" fill-rule="evenodd" clip-rule="evenodd" fill="#B6B8BA" width="0.309" height="22.809"/>
		
			<rect x="32.096" y="-0.041" clip-path="url(#SVGID_2_)" fill-rule="evenodd" clip-rule="evenodd" fill="#CDCED0" width="0.307" height="22.809"/>
		
			<rect x="31.793" y="-0.041" clip-path="url(#SVGID_2_)" fill-rule="evenodd" clip-rule="evenodd" fill="#B6B8BA" width="0.303" height="22.809"/>
		
			<rect x="33.396" y="-0.041" clip-path="url(#SVGID_2_)" fill-rule="evenodd" clip-rule="evenodd" fill="#CDCED0" width="0.305" height="22.809"/>
		
			<rect x="33.094" y="-0.041" clip-path="url(#SVGID_2_)" fill-rule="evenodd" clip-rule="evenodd" fill="#B6B8BA" width="0.303" height="22.809"/>
		
			<rect x="34.695" y="-0.041" clip-path="url(#SVGID_2_)" fill-rule="evenodd" clip-rule="evenodd" fill="#F0583E" width="0.307" height="22.809"/>
		
			<rect x="34.389" y="-0.041" clip-path="url(#SVGID_2_)" fill-rule="evenodd" clip-rule="evenodd" fill="#C95E45" width="0.307" height="22.809"/>
		
			<rect x="35.994" y="-0.041" clip-path="url(#SVGID_2_)" fill-rule="evenodd" clip-rule="evenodd" fill="#F0583E" width="0.309" height="22.809"/>
		
			<rect x="35.689" y="-0.041" clip-path="url(#SVGID_2_)" fill-rule="evenodd" clip-rule="evenodd" fill="#C95E45" width="0.305" height="22.809"/>
		
			<rect x="37.295" y="-0.041" clip-path="url(#SVGID_2_)" fill-rule="evenodd" clip-rule="evenodd" fill="#F0583E" width="0.303" height="22.809"/>
		
			<rect x="36.988" y="-0.041" clip-path="url(#SVGID_2_)" fill-rule="evenodd" clip-rule="evenodd" fill="#C95E45" width="0.307" height="22.809"/>
		
			<rect x="38.594" y="-0.041" clip-path="url(#SVGID_2_)" fill-rule="evenodd" clip-rule="evenodd" fill="#F0583E" width="0.303" height="22.809"/>
		
			<rect x="38.289" y="-0.041" clip-path="url(#SVGID_2_)" fill-rule="evenodd" clip-rule="evenodd" fill="#C95E45" width="0.305" height="22.809"/>
		
			<rect x="39.891" y="-0.041" clip-path="url(#SVGID_2_)" fill-rule="evenodd" clip-rule="evenodd" fill="#F0583E" width="0.305" height="22.809"/>
		
			<rect x="39.586" y="-0.041" clip-path="url(#SVGID_2_)" fill-rule="evenodd" clip-rule="evenodd" fill="#C95E45" width="0.305" height="22.809"/>
		
			<rect x="41.189" y="-0.041" clip-path="url(#SVGID_2_)" fill-rule="evenodd" clip-rule="evenodd" fill="#F0583E" width="0.307" height="22.809"/>
		
			<rect x="40.883" y="-0.041" clip-path="url(#SVGID_2_)" fill-rule="evenodd" clip-rule="evenodd" fill="#C95E45" width="0.307" height="22.809"/>
		
			<rect x="42.49" y="-0.041" clip-path="url(#SVGID_2_)" fill-rule="evenodd" clip-rule="evenodd" fill="#F0583E" width="0.305" height="22.809"/>
		
			<rect x="42.182" y="-0.041" clip-path="url(#SVGID_2_)" fill-rule="evenodd" clip-rule="evenodd" fill="#C95E45" width="0.309" height="22.809"/>
		
			<rect x="43.789" y="-0.041" clip-path="url(#SVGID_2_)" fill-rule="evenodd" clip-rule="evenodd" fill="#F0583E" width="0.307" height="22.809"/>
		
			<rect x="43.48" y="-0.041" clip-path="url(#SVGID_2_)" fill-rule="evenodd" clip-rule="evenodd" fill="#C95E45" width="0.309" height="22.809"/>
		
			<rect x="45.086" y="-0.041" clip-path="url(#SVGID_2_)" fill-rule="evenodd" clip-rule="evenodd" fill="#F0583E" width="0.303" height="22.809"/>
		
			<rect x="44.783" y="-0.041" clip-path="url(#SVGID_2_)" fill-rule="evenodd" clip-rule="evenodd" fill="#C95E45" width="0.303" height="22.809"/>
	</g>
	<polygon fill-rule="evenodd" clip-rule="evenodd" fill="#A6A8AB" points="6.301,22.576 21.181,24.312 21.264,0.688 6.301,2.547 	
		"/>
	<polygon fill-rule="evenodd" clip-rule="evenodd" fill="#BCBEC0" points="6.795,20.602 20.522,21.846 20.604,2.004 6.795,3.863 	
		"/>
	<g>
		<defs>
			<polygon id="SVGID_3_" points="6.795,20.602 20.522,21.846 20.604,2.004 6.795,3.863 			"/>
		</defs>
		<clipPath id="SVGID_4_">
			<use xlink:href="#SVGID_3_"  overflow="visible"/>
		</clipPath>
		
			<rect x="13.703" y="-0.041" clip-path="url(#SVGID_4_)" fill-rule="evenodd" clip-rule="evenodd" fill="#A6A8AB" width="0.303" height="22.809"/>
		
			<rect x="13.396" y="-0.041" clip-path="url(#SVGID_4_)" fill-rule="evenodd" clip-rule="evenodd" fill="#A6A8AB" width="0.307" height="22.809"/>
	</g>
</g>
</svg>
