<?xml version="1.0" encoding="utf-8"?>
<!-- Generator: Adobe Illustrator 15.0.2, SVG Export Plug-In . SVG Version: 6.00 Build 0)  -->
<!DOCTYPE svg PUBLIC "-//W3C//DTD SVG 1.1//EN" "http://www.w3.org/Graphics/SVG/1.1/DTD/svg11.dtd">
<svg version="1.1" id="Layer_1" xmlns="http://www.w3.org/2000/svg" xmlns:xlink="http://www.w3.org/1999/xlink" x="0px" y="0px"
	 width="51px" height="25px" viewBox="0 0 51 25" enable-background="new 0 0 51 25" xml:space="preserve">
<g>
	<path fill-rule="evenodd" clip-rule="evenodd" fill="#A6A8AB" d="M50.428,10.84c-2.493,0.438-4.981,0.876-7.474,1.313
		c-0.422,0.484-0.843,0.969-1.259,1.455c-8.01,0-16.016,0-24.021,0c-0.307-0.55-0.616-1.102-0.922-1.651
		c-0.435-0.09-0.869-0.178-1.303-0.269c-0.018-0.74-0.038-1.482-0.057-2.223c-1.115-0.02-2.227-0.041-3.341-0.061
		c-0.01-1.095-0.021-2.189-0.03-3.283c-0.862,0.461-1.721,0.922-2.583,1.384c-0.024,0.475-0.051,0.95-0.074,1.425
		C8.278,9.035,7.19,9.135,6.103,9.24C5.86,9.957,5.61,10.672,5.365,11.389c-0.821-0.009-1.646-0.02-2.472-0.03
		c-0.047,0.502-0.091,1.004-0.138,1.506C2.027,12.79,1.3,12.72,0.573,12.645c0.455,1.123,0.589,1.216,1.38,2.128
		c15.172,0,30.342,0,45.513,0C48.602,13.463,49.622,12.154,50.428,10.84"/>
	<path fill-rule="evenodd" clip-rule="evenodd" fill="#A6A8AB" d="M47.368,15.11H2.341l2.303,2.071
		c2.566,0.104,5.308-0.204,8.373-0.553c4.425-0.502,8.604,1.313,12.663,0.253c4.062-1.057,7.413-0.384,12.179,0.06
		c2.85,0.268,5.638-0.123,8.022-0.265L47.368,15.11z"/>
	<path fill="#231F20" d="M1.388,16.468c3.462,0.781,7.187,0.359,11.575-0.135l0.021-0.003c2.027-0.229,3.991,0.017,5.917,0.26
		c2.293,0.289,4.53,0.568,6.706,0.003c3.409-0.89,6.305-0.58,9.922-0.189c0.767,0.081,1.567,0.169,2.357,0.243
		c2.118,0.194,4.219,0.023,6.139-0.135c2.392-0.195,4.507-0.37,6.116,0.212l-0.201,0.562c-1.486-0.535-3.539-0.363-5.865-0.175l0,0
		c-1.938,0.161-4.063,0.337-6.242,0.131C36.97,17.161,36.2,17.081,35.464,17c-3.557-0.381-6.406-0.687-9.71,0.175
		c-2.283,0.593-4.577,0.308-6.927,0.01c-1.89-0.235-3.816-0.478-5.776-0.259l-0.02,0.004c-4.442,0.502-8.211,0.93-11.774,0.123
		L1.388,16.468z"/>
	<path fill-rule="evenodd" clip-rule="evenodd" fill="#EC1C24" d="M18.52,10.146h10.232c0.605,0,0.605,2.825,0,2.825H18.52
		C17.917,12.972,17.914,10.146,18.52,10.146"/>
	<path fill-rule="evenodd" clip-rule="evenodd" fill="#EC1C24" d="M23.437,9.927h0.502c0.013,0,0.027,0.014,0.027,0.027v0.364
		c0,0.015-0.014,0.027-0.027,0.027h-0.502c-0.014,0-0.023-0.012-0.023-0.027V9.954C23.414,9.941,23.423,9.927,23.437,9.927"/>
	<path fill-rule="evenodd" clip-rule="evenodd" fill="#EC1C24" d="M29.896,10.146h10.234c0.604,0,0.604,2.825,0,2.825H29.896
		C29.293,12.972,29.293,10.146,29.896,10.146"/>
	<path fill-rule="evenodd" clip-rule="evenodd" fill="#EC1C24" d="M34.816,9.927h0.499c0.017,0,0.026,0.014,0.026,0.027v0.364
		c0,0.015-0.01,0.027-0.026,0.027h-0.499c-0.017,0-0.027-0.012-0.027-0.027V9.954C34.789,9.941,34.8,9.927,34.816,9.927"/>
</g>
</svg>
