<?xml version="1.0" encoding="utf-8"?>
<!-- Generator: Adobe Illustrator 15.0.2, SVG Export Plug-In . SVG Version: 6.00 Build 0)  -->
<!DOCTYPE svg PUBLIC "-//W3C//DTD SVG 1.1//EN" "http://www.w3.org/Graphics/SVG/1.1/DTD/svg11.dtd">
<svg version="1.1" id="Layer_1" xmlns="http://www.w3.org/2000/svg" xmlns:xlink="http://www.w3.org/1999/xlink" x="0px" y="0px"
	 width="51px" height="25px" viewBox="0 0 51 25" enable-background="new 0 0 51 25" xml:space="preserve">
<g>
	<polygon fill="none" stroke="#929497" stroke-width="0.0019" stroke-miterlimit="2.6131" points="2.096,14.687 25.26,14.687 
		48.421,14.687 48.421,15.909 38,15.825 31.629,17.726 25.26,17.726 18.889,17.726 12.517,15.825 2.096,15.909 	"/>
	<polygon fill-rule="evenodd" clip-rule="evenodd" fill="#A6A8AB" points="2.121,14.677 25.285,14.677 48.449,14.677 48.449,15.899 
		38.027,15.816 31.656,17.716 25.285,17.716 18.913,17.716 12.542,15.816 2.121,15.899 	"/>
	<path fill-rule="evenodd" clip-rule="evenodd" fill="#929497" d="M1.273,16.152h12.673v0.332h-1.201
		c-0.219-0.132-0.474-0.213-0.751-0.213c-0.276,0-0.533,0.081-0.751,0.213H6.42c-0.219-0.132-0.478-0.213-0.754-0.213
		c-0.274,0-0.533,0.081-0.751,0.213H1.273V16.152z"/>
	<rect x="2.121" y="15.872" fill-rule="evenodd" clip-rule="evenodd" fill="#929497" width="10.445" height="0.465"/>
	<path fill="none" stroke="#929497" stroke-miterlimit="2.6131" d="M11.97,18.542c-0.296,0-0.533-0.237-0.533-0.53
		c0-0.292,0.236-0.529,0.533-0.529c0.292,0,0.529,0.237,0.529,0.529C12.499,18.305,12.262,18.542,11.97,18.542z M11.97,19.447
		c-0.795,0-1.437-0.644-1.437-1.436c0-0.791,0.641-1.435,1.437-1.435c0.791,0,1.435,0.644,1.435,1.435
		C13.404,18.804,12.76,19.447,11.97,19.447z M5.64,18.542c-0.292,0-0.532-0.237-0.532-0.53c0-0.292,0.24-0.529,0.532-0.529
		s0.53,0.237,0.53,0.529C6.17,18.305,5.933,18.542,5.64,18.542z M5.64,19.447c-0.794,0-1.435-0.644-1.435-1.436
		c0-0.791,0.64-1.435,1.435-1.435c0.792,0,1.436,0.644,1.436,1.435C7.076,18.804,6.433,19.447,5.64,19.447z"/>
	<rect x="0.264" y="15.952" fill-rule="evenodd" clip-rule="evenodd" fill="#929497" width="1.009" height="1.037"/>
	<path fill="none" stroke="#929497" stroke-width="0.5" stroke-miterlimit="2.6131" d="M8.579,18.742c0.151,0,0.301,0,0.45,0
		c0.312,0,0.621,0,0.93,0c0.268-0.635,0.932-1.216,1.819-1.773c-0.933,0-1.862,0-2.793,0c-0.12,0-0.239,0-0.363,0
		c-0.929,0-1.86,0-2.79,0c0.904,0.505,1.454,1.114,1.816,1.773C7.96,18.742,8.268,18.742,8.579,18.742z"/>
	<path fill-rule="evenodd" clip-rule="evenodd" fill="#FFFFFF" d="M22.092,15.639h1.154v-0.823h-1.154V15.639z M22.092,15.639h1.154
		v0.668h-1.154V15.639z M22.092,17.152h1.154v-0.846h-1.154V17.152z M22.092,17.152h1.154v1.069h-1.154V17.152z"/>
	<path fill="none" stroke="#929497" stroke-width="0.5" stroke-miterlimit="2.6131" d="M22.092,15.639h1.154v-0.823h-1.154V15.639z
		 M22.092,15.639h1.154v0.668h-1.154V15.639z M22.092,17.152h1.154v-0.846h-1.154V17.152z M22.092,17.152h1.154v1.069h-1.154V17.152
		z"/>
	<rect x="22.677" y="5.553" fill-rule="evenodd" clip-rule="evenodd" fill="#F0F0F1" width="0.335" height="9.124"/>
	<rect x="21.823" y="5.553" fill-rule="evenodd" clip-rule="evenodd" fill="#F0F0F1" width="0.333" height="9.124"/>
	<rect x="20.971" y="5.553" fill-rule="evenodd" clip-rule="evenodd" fill="#F0F0F1" width="0.333" height="9.124"/>
	<rect x="20.118" y="5.553" fill-rule="evenodd" clip-rule="evenodd" fill="#F0F0F1" width="0.333" height="9.124"/>
	<rect x="19.265" y="5.553" fill-rule="evenodd" clip-rule="evenodd" fill="#F0F0F1" width="0.333" height="9.124"/>
	<rect x="18.412" y="5.553" fill-rule="evenodd" clip-rule="evenodd" fill="#F0F0F1" width="0.336" height="9.124"/>
	<rect x="17.559" y="5.553" fill-rule="evenodd" clip-rule="evenodd" fill="#F0F0F1" width="0.336" height="9.124"/>
	<rect x="16.705" y="5.553" fill-rule="evenodd" clip-rule="evenodd" fill="#F0F0F1" width="0.336" height="9.124"/>
	<rect x="15.856" y="5.553" fill-rule="evenodd" clip-rule="evenodd" fill="#F0F0F1" width="0.333" height="9.124"/>
	<rect x="15.002" y="5.553" fill-rule="evenodd" clip-rule="evenodd" fill="#F0F0F1" width="0.333" height="9.124"/>
	<rect x="14.146" y="5.553" fill-rule="evenodd" clip-rule="evenodd" fill="#F0F0F1" width="0.335" height="9.124"/>
	<rect x="13.293" y="5.553" fill-rule="evenodd" clip-rule="evenodd" fill="#F0F0F1" width="0.335" height="9.124"/>
	<rect x="12.443" y="5.553" fill-rule="evenodd" clip-rule="evenodd" fill="#F0F0F1" width="0.333" height="9.124"/>
	<rect x="11.591" y="5.553" fill-rule="evenodd" clip-rule="evenodd" fill="#F0F0F1" width="0.332" height="9.124"/>
	<rect x="10.736" y="5.553" fill-rule="evenodd" clip-rule="evenodd" fill="#F0F0F1" width="0.333" height="9.124"/>
	<rect x="9.884" y="5.553" fill-rule="evenodd" clip-rule="evenodd" fill="#F0F0F1" width="0.333" height="9.124"/>
	<rect x="9.032" y="5.553" fill-rule="evenodd" clip-rule="evenodd" fill="#F0F0F1" width="0.333" height="9.124"/>
	<rect x="8.179" y="5.553" fill-rule="evenodd" clip-rule="evenodd" fill="#F0F0F1" width="0.334" height="9.124"/>
	<rect x="7.326" y="5.553" fill-rule="evenodd" clip-rule="evenodd" fill="#F0F0F1" width="0.335" height="9.124"/>
	<rect x="6.472" y="5.553" fill-rule="evenodd" clip-rule="evenodd" fill="#F0F0F1" width="0.335" height="9.124"/>
	<rect x="5.971" y="5.562" fill="none" stroke="#A6A8AB" stroke-miterlimit="2.6131" width="17.491" height="9.125"/>
	<path fill="none" stroke="#929497" stroke-width="0.5" stroke-miterlimit="2.6131" d="M8.878,17.897h0.939v0.314H8.878V17.897z
		 M8.878,17.897h0.939v-0.311H8.878V17.897z M8.878,17.273h0.939v0.313H8.878V17.273z M7.683,17.897h0.943v0.314H7.683V17.897z
		 M7.683,17.897h0.943v-0.311H7.683V17.897z M7.683,17.273h0.943v0.313H7.683V17.273z"/>
	<path fill-rule="evenodd" clip-rule="evenodd" fill="#929497" d="M49.899,16.152H37.227v0.332h1.199
		c0.218-0.132,0.478-0.213,0.751-0.213c0.277,0,0.535,0.081,0.754,0.213h4.823c0.219-0.132,0.477-0.213,0.751-0.213
		c0.277,0,0.536,0.081,0.755,0.213h3.64V16.152z"/>
	<rect x="38.604" y="15.872" fill-rule="evenodd" clip-rule="evenodd" fill="#929497" width="10.446" height="0.465"/>
	<path fill="none" stroke="#929497" stroke-miterlimit="2.6131" d="M39.151,18.542c0.293,0,0.53-0.237,0.53-0.53
		c0-0.292-0.237-0.529-0.53-0.529c-0.291,0-0.531,0.237-0.531,0.529C38.62,18.305,38.86,18.542,39.151,18.542z M39.151,19.447
		c0.793,0,1.436-0.644,1.436-1.436c0-0.791-0.643-1.435-1.436-1.435c-0.794,0-1.435,0.644-1.435,1.435
		C37.717,18.804,38.357,19.447,39.151,19.447z M45.48,18.542c0.293,0,0.53-0.237,0.53-0.53c0-0.292-0.237-0.529-0.53-0.529
		c-0.296,0-0.533,0.237-0.533,0.529C44.947,18.305,45.185,18.542,45.48,18.542z M45.48,19.447c0.791,0,1.435-0.644,1.435-1.436
		c0-0.791-0.644-1.435-1.435-1.435c-0.794,0-1.438,0.644-1.438,1.435C44.043,18.804,44.687,19.447,45.48,19.447z"/>
	<rect x="49.899" y="15.952" fill-rule="evenodd" clip-rule="evenodd" fill="#929497" width="1.01" height="1.037"/>
	<path fill="none" stroke="#929497" stroke-width="0.5" stroke-miterlimit="2.6131" d="M42.539,18.742c-0.15,0-0.299,0-0.449,0
		c-0.311,0-0.622,0-0.93,0c-0.268-0.635-0.93-1.216-1.817-1.773c0.93,0,1.86,0,2.79,0c0.124,0,0.243,0,0.363,0
		c0.931,0,1.86,0,2.791,0c-0.906,0.505-1.451,1.114-1.817,1.773C43.161,18.742,42.851,18.742,42.539,18.742z"/>
	<path fill="none" stroke="#929497" stroke-width="0.5" stroke-miterlimit="2.6131" d="M42.243,17.897h-0.941v0.314h0.941V17.897z
		 M42.243,17.897h-0.941v-0.311h0.941V17.897z M42.243,17.273h-0.941v0.313h0.941V17.273z M43.436,17.897h-0.939v0.314h0.939V17.897
		z M43.436,17.897h-0.939v-0.311h0.939V17.897z M43.436,17.273h-0.939v0.313h0.939V17.273z"/>
	<rect x="42.277" y="5.553" fill-rule="evenodd" clip-rule="evenodd" fill="#F0F0F1" width="0.333" height="9.124"/>
	<rect x="41.422" y="5.553" fill-rule="evenodd" clip-rule="evenodd" fill="#F0F0F1" width="0.332" height="9.124"/>
	<rect x="40.568" y="5.553" fill-rule="evenodd" clip-rule="evenodd" fill="#F0F0F1" width="0.334" height="9.124"/>
	<rect x="39.715" y="5.553" fill-rule="evenodd" clip-rule="evenodd" fill="#F0F0F1" width="0.334" height="9.124"/>
	<rect x="38.863" y="5.553" fill-rule="evenodd" clip-rule="evenodd" fill="#F0F0F1" width="0.335" height="9.124"/>
	<rect x="38.01" y="5.553" fill-rule="evenodd" clip-rule="evenodd" fill="#F0F0F1" width="0.335" height="9.124"/>
	<rect x="37.156" y="5.553" fill-rule="evenodd" clip-rule="evenodd" fill="#F0F0F1" width="0.336" height="9.124"/>
	<rect x="36.305" y="5.553" fill-rule="evenodd" clip-rule="evenodd" fill="#F0F0F1" width="0.334" height="9.124"/>
	<rect x="35.453" y="5.553" fill-rule="evenodd" clip-rule="evenodd" fill="#F0F0F1" width="0.333" height="9.124"/>
	<rect x="34.601" y="5.553" fill-rule="evenodd" clip-rule="evenodd" fill="#F0F0F1" width="0.333" height="9.124"/>
	<rect x="33.747" y="5.553" fill-rule="evenodd" clip-rule="evenodd" fill="#F0F0F1" width="0.333" height="9.124"/>
	<rect x="32.895" y="5.553" fill-rule="evenodd" clip-rule="evenodd" fill="#F0F0F1" width="0.332" height="9.124"/>
	<rect x="32.042" y="5.553" fill-rule="evenodd" clip-rule="evenodd" fill="#F0F0F1" width="0.332" height="9.124"/>
	<rect x="31.188" y="5.553" fill-rule="evenodd" clip-rule="evenodd" fill="#F0F0F1" width="0.333" height="9.124"/>
	<rect x="30.336" y="5.553" fill-rule="evenodd" clip-rule="evenodd" fill="#F0F0F1" width="0.332" height="9.124"/>
	<rect x="29.482" y="5.553" fill-rule="evenodd" clip-rule="evenodd" fill="#F0F0F1" width="0.335" height="9.124"/>
	<rect x="28.629" y="5.553" fill-rule="evenodd" clip-rule="evenodd" fill="#F0F0F1" width="0.333" height="9.124"/>
	<rect x="27.776" y="5.553" fill-rule="evenodd" clip-rule="evenodd" fill="#F0F0F1" width="0.335" height="9.124"/>
	<rect x="26.924" y="5.553" fill-rule="evenodd" clip-rule="evenodd" fill="#F0F0F1" width="0.335" height="9.124"/>
	<rect x="26.073" y="5.553" fill-rule="evenodd" clip-rule="evenodd" fill="#F0F0F1" width="0.332" height="9.124"/>
	<rect x="25.569" y="5.562" fill="none" stroke="#A6A8AB" stroke-miterlimit="2.6131" width="17.491" height="9.125"/>
	<rect x="25.858" y="8.816" fill-rule="evenodd" clip-rule="evenodd" fill="#EC1C24" width="6.845" height="5.683"/>
</g>
</svg>
